HIERARCHY
ROOT Hips
{
  OFFSET 224.18 90.4135 962.297
  CHANNELS 6 Xposition Yposition Zposition Zrotation Xrotation Yrotation
  JOINT Spine
  {
    OFFSET 0 8 0
    CHANNELS 6 Xposition Yposition Zposition Zrotation Xrotation Yrotation
    JOINT Spine1
    {
      OFFSET 2.62631e-05 8 -2.76502e-05
      CHANNELS 6 Xposition Yposition Zposition Zrotation Xrotation Yrotation
      JOINT Spine2
      {
        OFFSET 0 8 0
        CHANNELS 6 Xposition Yposition Zposition Zrotation Xrotation Yrotation
        JOINT Spine3
        {
          OFFSET 0 8 0
          CHANNELS 6 Xposition Yposition Zposition Zrotation Xrotation Yrotation
          JOINT Neck
          {
            OFFSET 0.000165141 17.0002 -0.0004266
            CHANNELS 6 Xposition Yposition Zposition Zrotation Xrotation Yrotation
            JOINT Head
            {
              OFFSET 1.56277e-05 10.8 0
              CHANNELS 6 Xposition Yposition Zposition Zrotation Xrotation Yrotation
              End Site
              {
                OFFSET 0 20.25 0
              }
            }
          }
          JOINT LeftShoulder
          {
            OFFSET 5.0002 16.9999 -0.000270742
            CHANNELS 6 Xposition Yposition Zposition Zrotation Xrotation Yrotation
            JOINT LeftShoulder2
            {
              OFFSET 6.45 0 0
              CHANNELS 6 Xposition Yposition Zposition Zrotation Xrotation Yrotation
              JOINT LeftArm
              {
                OFFSET 6.4499 0.00015947 0.000363818
                CHANNELS 6 Xposition Yposition Zposition Zrotation Xrotation Yrotation
                JOINT LeftForeArm
                {
                  OFFSET 0 -32.4 -2
                  CHANNELS 6 Xposition Yposition Zposition Zrotation Xrotation Yrotation
                  JOINT LeftHand
                  {
                    OFFSET 1.23613e-05 -25.65 2.00001
                    CHANNELS 6 Xposition Yposition Zposition Zrotation Xrotation Yrotation
                    JOINT LeftHandThumb1
                    {
                      OFFSET -0.49997 -1.49999 2.65002
                      CHANNELS 6 Xposition Yposition Zposition Zrotation Xrotation Yrotation
                      JOINT LeftHandThumb2
                      {
                        OFFSET -5.30691e-05 -3.80001 3.69997
                        CHANNELS 6 Xposition Yposition Zposition Zrotation Xrotation Yrotation
                        JOINT LeftHandThumb3
                        {
                          OFFSET 3.72284e-05 -2.99998 2.70001
                          CHANNELS 6 Xposition Yposition Zposition Zrotation Xrotation Yrotation
                          End Site
                          {
                            OFFSET -3.07564e-05 -2.30001 1.79999
                          }
                        }
                      }
                    }
                    JOINT LeftHandIndex
                    {
                      OFFSET 0 -1.89998 1.59999
                      CHANNELS 6 Xposition Yposition Zposition Zrotation Xrotation Yrotation
                      JOINT LeftHandIndex1
                      {
                        OFFSET -1.6085e-05 -8.30001 1.9
                        CHANNELS 6 Xposition Yposition Zposition Zrotation Xrotation Yrotation
                        JOINT LeftHandIndex2
                        {
                          OFFSET 6.34438e-05 -4.5 1.88644e-05
                          CHANNELS 6 Xposition Yposition Zposition Zrotation Xrotation Yrotation
                          JOINT LeftHandIndex3
                          {
                            OFFSET -1.92838e-05 -3.40002 -2.67889e-05
                            CHANNELS 6 Xposition Yposition Zposition Zrotation Xrotation Yrotation
                            End Site
                            {
                              OFFSET 1.25883e-05 -2.6 0
                            }
                          }
                        }
                      }
                    }
                    JOINT LeftHandMiddle
                    {
                      OFFSET -0.249996 -2.2 0.400004
                      CHANNELS 6 Xposition Yposition Zposition Zrotation Xrotation Yrotation
                      JOINT LeftHandMiddle1
                      {
                        OFFSET 0 -8.29999 0.999984
                        CHANNELS 6 Xposition Yposition Zposition Zrotation Xrotation Yrotation
                        JOINT LeftHandMiddle2
                        {
                          OFFSET 1.60589e-05 -4.65 2.56092e-05
                          CHANNELS 6 Xposition Yposition Zposition Zrotation Xrotation Yrotation
                          JOINT LeftHandMiddle3
                          {
                            OFFSET -1.40931e-05 -3.30002 -2.9216e-05
                            CHANNELS 6 Xposition Yposition Zposition Zrotation Xrotation Yrotation
                            End Site
                            {
                              OFFSET -6.36158e-05 -2.69999 1.23334e-05
                            }
                          }
                        }
                      }
                    }
                    JOINT LeftHandRing
                    {
                      OFFSET -0.499994 -2.14999 -0.800006
                      CHANNELS 6 Xposition Yposition Zposition Zrotation Xrotation Yrotation
                      JOINT LeftHandRing1
                      {
                        OFFSET -2.07263e-05 -7.75001 -0.200006
                        CHANNELS 6 Xposition Yposition Zposition Zrotation Xrotation Yrotation
                        JOINT LeftHandRing2
                        {
                          OFFSET 0 -3.79999 0
                          CHANNELS 6 Xposition Yposition Zposition Zrotation Xrotation Yrotation
                          JOINT LeftHandRing3
                          {
                            OFFSET 0 -3.39999 2.21033e-05
                            CHANNELS 6 Xposition Yposition Zposition Zrotation Xrotation Yrotation
                            End Site
                            {
                              OFFSET 0 -2.60001 0
                            }
                          }
                        }
                      }
                    }
                    JOINT LeftHandPinky
                    {
                      OFFSET -0.749992 -1.75001 -1.85
                      CHANNELS 6 Xposition Yposition Zposition Zrotation Xrotation Yrotation
                      JOINT LeftHandPinky1
                      {
                        OFFSET -1.74078e-05 -7.14998 -1.00002
                        CHANNELS 6 Xposition Yposition Zposition Zrotation Xrotation Yrotation
                        JOINT LeftHandPinky2
                        {
                          OFFSET 0 -2.99999 0
                          CHANNELS 6 Xposition Yposition Zposition Zrotation Xrotation Yrotation
                          JOINT LeftHandPinky3
                          {
                            OFFSET 2.55531e-05 -2.34999 2.66659e-05
                            CHANNELS 6 Xposition Yposition Zposition Zrotation Xrotation Yrotation
                            End Site
                            {
                              OFFSET 0 -2.1 0
                            }
                          }
                        }
                      }
                    }
                  }
                }
              }
            }
          }
          JOINT RightShoulder
          {
            OFFSET -4.9998 17.0001 -0.000476349
            CHANNELS 6 Xposition Yposition Zposition Zrotation Xrotation Yrotation
            JOINT RightShoulder2
            {
              OFFSET -6.45 0 0
              CHANNELS 6 Xposition Yposition Zposition Zrotation Xrotation Yrotation
              JOINT RightArm
              {
                OFFSET -6.45003 0.00023737 -0.000308998
                CHANNELS 6 Xposition Yposition Zposition Zrotation Xrotation Yrotation
                JOINT RightForeArm
                {
                  OFFSET 2.41925e-05 -32.4 -2.00002
                  CHANNELS 6 Xposition Yposition Zposition Zrotation Xrotation Yrotation
                  JOINT RightHand
                  {
                    OFFSET 0 -25.65 1.99999
                    CHANNELS 6 Xposition Yposition Zposition Zrotation Xrotation Yrotation
                    JOINT RightHandThumb1
                    {
                      OFFSET 0.500001 -1.5 2.65004
                      CHANNELS 6 Xposition Yposition Zposition Zrotation Xrotation Yrotation
                      JOINT RightHandThumb2
                      {
                        OFFSET 0 -3.79997 3.69996
                        CHANNELS 6 Xposition Yposition Zposition Zrotation Xrotation Yrotation
                        JOINT RightHandThumb3
                        {
                          OFFSET 0 -3.00001 2.70003
                          CHANNELS 6 Xposition Yposition Zposition Zrotation Xrotation Yrotation
                          End Site
                          {
                            OFFSET -1.18282e-05 -2.3 1.79998
                          }
                        }
                      }
                    }
                    JOINT RightHandIndex
                    {
                      OFFSET 0 -1.9 1.60002
                      CHANNELS 6 Xposition Yposition Zposition Zrotation Xrotation Yrotation
                      JOINT RightHandIndex1
                      {
                        OFFSET 0 -8.30001 1.89992
                        CHANNELS 6 Xposition Yposition Zposition Zrotation Xrotation Yrotation
                        JOINT RightHandIndex2
                        {
                          OFFSET -1.20277e-05 -4.5 1.67209e-05
                          CHANNELS 6 Xposition Yposition Zposition Zrotation Xrotation Yrotation
                          JOINT RightHandIndex3
                          {
                            OFFSET 0 -3.4 -1.38463e-05
                            CHANNELS 6 Xposition Yposition Zposition Zrotation Xrotation Yrotation
                            End Site
                            {
                              OFFSET 1.14996e-05 -2.6 0
                            }
                          }
                        }
                      }
                    }
                    JOINT RightHandMiddle
                    {
                      OFFSET 0.249998 -2.20001 0.400015
                      CHANNELS 6 Xposition Yposition Zposition Zrotation Xrotation Yrotation
                      JOINT RightHandMiddle1
                      {
                        OFFSET 0 -8.29999 0.99999
                        CHANNELS 6 Xposition Yposition Zposition Zrotation Xrotation Yrotation
                        JOINT RightHandMiddle2
                        {
                          OFFSET 0 -4.64999 0
                          CHANNELS 6 Xposition Yposition Zposition Zrotation Xrotation Yrotation
                          JOINT RightHandMiddle3
                          {
                            OFFSET -2.517e-05 -3.30001 1.84719e-05
                            CHANNELS 6 Xposition Yposition Zposition Zrotation Xrotation Yrotation
                            End Site
                            {
                              OFFSET 0 -2.7 0
                            }
                          }
                        }
                      }
                    }
                    JOINT RightHandRing
                    {
                      OFFSET 0.5 -2.15 -0.799993
                      CHANNELS 6 Xposition Yposition Zposition Zrotation Xrotation Yrotation
                      JOINT RightHandRing1
                      {
                        OFFSET 0 -7.75001 -0.200026
                        CHANNELS 6 Xposition Yposition Zposition Zrotation Xrotation Yrotation
                        JOINT RightHandRing2
                        {
                          OFFSET 1.02929e-05 -3.8 4.41051e-05
                          CHANNELS 6 Xposition Yposition Zposition Zrotation Xrotation Yrotation
                          JOINT RightHandRing3
                          {
                            OFFSET 1.03282e-05 -3.40001 0
                            CHANNELS 6 Xposition Yposition Zposition Zrotation Xrotation Yrotation
                            End Site
                            {
                              OFFSET 0 -2.59997 -1.58185e-05
                            }
                          }
                        }
                      }
                    }
                    JOINT RightHandPinky
                    {
                      OFFSET 0.750002 -1.75 -1.84997
                      CHANNELS 6 Xposition Yposition Zposition Zrotation Xrotation Yrotation
                      JOINT RightHandPinky1
                      {
                        OFFSET 0 -7.15 -1
                        CHANNELS 6 Xposition Yposition Zposition Zrotation Xrotation Yrotation
                        JOINT RightHandPinky2
                        {
                          OFFSET -1.51964e-05 -3 -4.41868e-05
                          CHANNELS 6 Xposition Yposition Zposition Zrotation Xrotation Yrotation
                          JOINT RightHandPinky3
                          {
                            OFFSET 0 -2.35 4.50619e-05
                            CHANNELS 6 Xposition Yposition Zposition Zrotation Xrotation Yrotation
                            End Site
                            {
                              OFFSET 0 -2.09997 -2.98822e-05
                            }
                          }
                        }
                      }
                    }
                  }
                }
              }
            }
          }
        }
      }
    }
  }
  JOINT LeftUpLeg
  {
    OFFSET 7.99999 0 0
    CHANNELS 6 Xposition Yposition Zposition Zrotation Xrotation Yrotation
    JOINT LeftLeg
    {
      OFFSET -2.90351e-05 -45 -1.00001
      CHANNELS 6 Xposition Yposition Zposition Zrotation Xrotation Yrotation
      JOINT LeftFoot
      {
        OFFSET -1.91966e-05 -41 -2
        CHANNELS 6 Xposition Yposition Zposition Zrotation Xrotation Yrotation
        JOINT LeftToeBase
        {
          OFFSET 0 -7.5 12.5
          CHANNELS 6 Xposition Yposition Zposition Zrotation Xrotation Yrotation
          JOINT LeftFootToe
          {
            OFFSET 0 0 4
            CHANNELS 6 Xposition Yposition Zposition Zrotation Xrotation Yrotation
            End Site
            {
              OFFSET 0 0 0
            }
          }
        }
      }
    }
  }
  JOINT RightUpLeg
  {
    OFFSET -7.99999 0 0
    CHANNELS 6 Xposition Yposition Zposition Zrotation Xrotation Yrotation
    JOINT RightLeg
    {
      OFFSET -2.46352e-05 -45 -0.999992
      CHANNELS 6 Xposition Yposition Zposition Zrotation Xrotation Yrotation
      JOINT RightFoot
      {
        OFFSET 0 -41 -2
        CHANNELS 6 Xposition Yposition Zposition Zrotation Xrotation Yrotation
        JOINT RightToeBase
        {
          OFFSET 1.30305e-05 -7.5 12.5
          CHANNELS 6 Xposition Yposition Zposition Zrotation Xrotation Yrotation
          JOINT RightFootToe
          {
            OFFSET 0 0 4
            CHANNELS 6 Xposition Yposition Zposition Zrotation Xrotation Yrotation
            End Site
            {
              OFFSET 0 0 0
            }
          }
        }
      }
    }
  }
}
MOTION
Frames:	3
Frame Time:	0.0111111
222.523 92.4593 951.363 -1.05291 -2.60448 67.9177 0 8 -1.13687e-13 5.71196 2.6092 -5.28203 0 8 1.13687e-13 -1.038 -0.54504 -0.841612 -1.13687e-13 8 0 -0.518014 -0.274437 -0.419593 0 8 0 -0.517877 -0.274685 -0.419942 0 17 0 0.258476 7.85586 6.41519 0 10.8 0 -3.73407 3.85987 14.9379 5 17 0 -4.71445 -2.62056 -5.5658 6.45 0 0 -0.483318 -1.58684 0.528343 6.45 -2.84217e-14 0 13.2155 -31.9495 9.99168 -1.13687e-13 -32.4 -2 12.5027 -42.7623 52.6837 0 -25.65 2 10.8075 -8.94374 12.3713 -0.5 -1.5 2.65 -12.7276 0.795282 -13.3544 0 -3.8 3.7 -0.656539 14.3181 -0.00142459 1.13687e-13 -3 2.7 0.0244837 26.278 -0.0398044 1.13687e-13 -1.9 1.6 1.39149e-15 2.78299e-15 -3.18055e-15 0 -8.3 1.9 -2.28428 -12.3756 -0.185635 0 -4.5 0 -12.1286 0.117704 -0.071297 0 -3.4 0 -9.18515 0.106744 -0.0429317 -0.25 -2.2 0.4 1.39149e-15 2.78299e-15 -3.18055e-15 0 -8.3 1 -10.8099 -1.54317 0.377395 0 -4.65 1.13687e-13 -60.5378 -0.0340611 0.15377 0 -3.3 -1.13687e-13 -43.1332 -0.0957733 0.0817215 -0.5 -2.15 -0.8 1.39149e-15 2.78299e-15 -3.18055e-15 1.13687e-13 -7.75 -0.2 -65.1953 12.8965 13.39 4.26326e-14 -3.8 0 -0.385635 0.00163846 -0.011328 2.84217e-14 -3.4 -5.68434e-14 -0.373188 -0.00315337 -0.010871 -0.75 -1.75 -1.85 1.39149e-15 2.78299e-15 -3.18055e-15 0 -7.15 -1 -73.3088 8.82875 14.665 2.84217e-14 -3 0 -0.614419 -0.000901425 0.0105846 -2.84217e-14 -2.35 -5.68434e-14 -0.562049 0.00373434 0.0102428 -5 17 0 -2.29744 1.51325 -3.82488 -6.45 -2.84217e-14 1.13687e-13 -2.3384 1.12684 -0.750806 -6.45 2.84217e-14 0 -8.8548 -40.3462 42.2199 0 -32.4 -2 41.8849 -64.9424 39.0395 0 -25.65 2 -37.1265 -0.708068 27.8797 0.5 -1.5 2.65 21.2867 -4.35678 0.716861 0 -3.8 3.7 0.941377 30.2853 -0.522705 0 -3 2.7 0.275203 11.3326 0.228049 5.68434e-14 -1.9 1.6 -7.95139e-16 -6.36111e-15 3.18055e-15 5.68434e-14 -8.3 1.9 19.3477 6.92657 -1.2843 0 -4.5 0 14.8059 0.290388 0.0684937 1.13687e-13 -3.4 0 12.3233 0.206006 0.00787406 0.25 -2.2 0.4 -7.95139e-16 -6.36111e-15 3.18055e-15 5.68434e-14 -8.3 1 28.0856 4.0468 -1.89943 1.13687e-13 -4.65 0 85.9375 0.0385072 -0.0794478 8.52651e-14 -3.3 0 78.2741 -0.170684 -0.134299 0.5 -2.15 -0.8 -7.95139e-16 -6.36111e-15 3.18055e-15 0 -7.75 -0.2 40.2826 2.28665 -2.90947 0 -3.8 0 89.5573 0.00929052 -0.0487657 -5.68434e-14 -3.4 1.13687e-13 88.4396 -0.160983 -0.0379822 0.75 -1.75 -1.85 -7.95139e-16 -6.36111e-15 3.18055e-15 0 -7.15 -1 53.8249 -0.961026 -3.03298 0 -3 -1.13687e-13 88.4953 -0.00809789 -0.106104 0 -2.35 0 85.0358 -0.307772 -0.00600998 8 -7.10543e-15 -1.13687e-13 15.5108 -11.3067 39.8655 0 -45 -1 -0.318475 3.9419 -6.51915 -1.13687e-13 -41 -2 -3.03906 8.39421 0.738776 0 -7.5 12.5 -4.44921e-10 -6.30329e-05 -2.79024e-09 0 1.77636e-15 4 0.960977 -5.54867 1.31397 -8 7.10543e-15 0 -0.283021 2.90926 -18.9536 0 -45 -1 -0.00823221 3.9644 0.184421 0 -41 -2 3.8653 -5.70769 1.51276 0 -7.5 12.5 -1.15504e-07 1.21044e-06 -2.54647e-06 0 1.38778e-17 4 -0.535778 2.28837 19.7608 
222.314 92.4821 951.469 -1.04616 -2.59995 67.9762 -1.13687e-13 8 1.13687e-13 5.79752 2.63586 -5.25449 0 8 0 -1.06402 -0.523411 -0.816432 0 8 0 -0.531094 -0.263612 -0.407018 0 8 0 -0.531052 -0.263591 -0.406989 1.13687e-13 17 0 0.317698 7.83465 6.39335 0 10.8 0 -3.73528 3.76192 14.8905 5 17 0 -4.60522 -2.60985 -5.61963 6.45 1.42109e-14 -1.13687e-13 -0.476348 -1.5905 0.521294 6.45 -7.10543e-14 0 12.5613 -31.8714 10.3875 -1.13687e-13 -32.4 -2 12.2929 -42.548 53.1621 1.13687e-13 -25.65 2 8.03136 -9.80828 10.9691 -0.5 -1.5 2.65 -11.9217 0.3439 -13.6553 0 -3.8 3.7 -0.693259 13.2666 0.0115502 0 -3 2.7 0.00928383 28.4682 -0.0636257 0 -1.9 1.6 -1.98785e-16 -7.95139e-16 -6.36111e-15 0 -8.3 1.9 -2.33867 -12.5152 -0.171704 0 -4.5 0 -7.52863 0.15623 -0.0537287 -1.13687e-13 -3.4 0 -5.91265 0.132127 -0.0240826 -0.25 -2.2 0.4 -1.98785e-16 -7.95139e-16 -6.36111e-15 0 -8.3 1 -9.872 -2.60056 0.348142 0 -4.65 -1.13687e-13 -57.9042 -0.043658 0.229778 -2.84217e-14 -3.3 0 -41.2617 -0.134219 0.115217 -0.5 -2.15 -0.8 -1.98785e-16 -7.95139e-16 -6.36111e-15 0 -7.75 -0.2 -59.9826 13.3412 12.2756 0 -3.8 5.68434e-14 -0.309383 0.00240001 -0.00669391 -2.84217e-14 -3.4 0 -0.301306 -0.00212934 -0.00646678 -0.75 -1.75 -1.85 -1.98785e-16 -7.95139e-16 -6.36111e-15 0 -7.15 -1 -68.1024 10.6118 13.9724 -2.84217e-14 -3 0 -0.58522 -0.000831842 0.00507366 -2.84217e-14 -2.35 -5.68434e-14 -0.53376 0.0038215 0.00494946 -5 17 0 -2.30243 1.8153 -3.95409 -6.45 0 1.13687e-13 -2.39127 1.11856 -0.812318 -6.45 2.84217e-14 0 -8.03372 -39.9994 42.1442 0 -32.4 -2 42.5893 -64.3377 38.2964 0 -25.65 2 -37.5594 0.983806 24.7179 0.5 -1.5 2.65 21.6638 -3.06882 1.03452 0 -3.8 3.7 1.08617 28.6009 -0.544562 0 -3 2.7 0.24413 12.8281 0.145474 1.13687e-13 -1.9 1.6 -7.95139e-16 -6.36111e-15 9.54166e-15 0 -8.3 1.9 20.8729 9.10443 -1.84385 0 -4.5 0 13.5729 0.170512 0.0407813 1.13687e-13 -3.4 0 11.4659 0.126832 0.0137244 0.25 -2.2 0.4 -7.95139e-16 -6.36111e-15 9.54166e-15 0 -8.3 1 30.072 6.10621 -2.638 0 -4.65 0 85.7276 0.0649557 -0.143383 5.68434e-14 -3.3 -1.13687e-13 77.7523 -0.301718 -0.225044 0.5 -2.15 -0.8 -7.95139e-16 -6.36111e-15 9.54166e-15 -2.27374e-13 -7.75 -0.2 42.0709 4.35019 -3.91355 0 -3.8 0 89.3423 0.0123617 -0.0729719 2.84217e-14 -3.4 0 87.7599 -0.238587 -0.053598 0.75 -1.75 -1.85 -7.95139e-16 -6.36111e-15 9.54166e-15 0 -7.15 -1 56.6957 0.65679 -4.25655 0 -3 0 88.031 -0.0170716 -0.162056 0 -2.35 0 83.8334 -0.461397 -0.00343781 8 0 1.13687e-13 15.6116 -11.4207 39.854 0 -45 -1 -0.317759 3.93709 -6.53094 0 -41 -2 -2.97802 8.18177 0.7882 1.13687e-13 -7.5 12.5 -4.44921e-10 -6.30329e-05 -2.79024e-09 1.13687e-13 3.55271e-15 4 0.923826 -5.28457 1.31241 -8 7.10543e-15 1.13687e-13 -0.168803 2.81736 -18.9656 2.27374e-13 -45 -1 -0.00838903 3.96226 0.188092 1.13687e-13 -41 -2 3.71919 -5.65645 1.45893 -1.13687e-13 -7.5 12.5 -1.15504e-07 1.21038e-06 -2.54647e-06 1.13687e-13 0 4 -0.418492 2.14979 19.7874 
222.114 92.5035 951.576 -1.03666 -2.59237 68.0593 -1.13687e-13 8 0 5.87463 2.65647 -5.23119 1.13687e-13 8 -1.13687e-13 -1.08728 -0.499284 -0.795097 0 8 1.13687e-13 -0.542922 -0.251538 -0.396374 0 8 0 -0.543127 -0.251811 -0.396234 -1.13687e-13 17 0 0.374598 7.81625 6.36586 1.13687e-13 10.8 -1.13687e-13 -3.74268 3.67853 14.83 5 17 0 -4.47181 -2.58519 -5.66841 6.45 0 0 -0.472504 -1.59435 0.504629 6.45 -1.42109e-14 -1.13687e-13 11.8549 -31.9801 10.6092 0 -32.4 -2 12.0033 -42.0768 53.8492 1.13687e-13 -25.65 2 5.26208 -10.5132 9.56304 -0.5 -1.5 2.65 -11.2971 -0.177627 -13.845 0 -3.8 3.7 -0.729775 12.2076 0.0351393 -1.13687e-13 -3 2.7 -0.0277093 30.1634 -0.0303535 0 -1.9 1.6 -1.54487e-31 2.78299e-15 3.18055e-15 0 -8.3 1.9 -2.454 -12.8285 -0.153316 0 -4.5 0 -4.10674 0.124916 -0.0354072 1.13687e-13 -3.4 0 -3.32886 0.103369 -0.0126076 -0.25 -2.2 0.4 -1.54487e-31 2.78299e-15 3.18055e-15 -1.13687e-13 -8.3 1 -9.46546 -3.88018 0.28515 1.13687e-13 -4.65 0 -53.8022 0.0398946 0.312142 5.68434e-14 -3.3 1.13687e-13 -38.4002 -0.11188 0.195984 -0.5 -2.15 -0.8 -1.54487e-31 2.78299e-15 3.18055e-15 0 -7.75 -0.2 -54.246 13.5551 10.9033 2.84217e-14 -3.8 0 -0.275944 0.00305618 -0.00486143 0 -3.4 1.13687e-13 -0.269934 -0.000605118 -0.00471987 -0.75 -1.75 -1.85 -1.54487e-31 2.78299e-15 3.18055e-15 -1.13687e-13 -7.15 -1 -62.3568 12.3186 13.0117 2.84217e-14 -3 0 -0.566794 -0.000758778 0.00329955 -8.52651e-14 -2.35 -5.68434e-14 -0.515023 0.0039139 0.00320433 -5 17 1.13687e-13 -2.3031 2.07223 -4.10109 -6.45 -2.84217e-14 0 -2.4345 1.09781 -0.863211 -6.45 -2.84217e-14 0 -7.22916 -39.6269 42.0661 -1.13687e-13 -32.4 -2 43.3635 -63.8425 37.8355 0 -25.65 2 -38.0704 2.65701 21.7919 0.5 -1.5 2.65 21.9792 -1.90888 1.3491 1.13687e-13 -3.8 3.7 1.1977 26.7437 -0.566639 -1.13687e-13 -3 2.7 0.24095 14.0768 0.095233 0 -1.9 1.6 1.59028e-15 -3.18055e-15 -9.54166e-15 1.13687e-13 -8.3 1.9 22.4926 10.9912 -2.41696 0 -4.5 0 12.5849 0.149151 0.0400632 0 -3.4 0 10.7436 0.116024 0.0155756 0.25 -2.2 0.4 1.59028e-15 -3.18055e-15 -9.54166e-15 0 -8.3 1 32.0201 7.90641 -3.36783 0 -4.65 0 85.4077 0.0626092 -0.138443 5.68434e-14 -3.3 0 76.9703 -0.289737 -0.218005 0.5 -2.15 -0.8 1.59028e-15 -3.18055e-15 -9.54166e-15 1.13687e-13 -7.75 -0.2 43.5775 6.15392 -4.84354 0 -3.8 0 89.0249 0.0135829 -0.0898994 -2.84217e-14 -3.4 0 86.7816 -0.284022 -0.0649096 0.75 -1.75 -1.85 1.59028e-15 -3.18055e-15 -9.54166e-15 -1.13687e-13 -7.15 -1 59.2735 1.95837 -5.39574 1.13687e-13 -3 -1.13687e-13 87.331 -0.0269542 -0.199502 5.68434e-14 -2.35 0 82.0503 -0.539478 -0.00660605 8 7.10543e-15 0 15.7029 -11.5357 39.8566 0 -45 -1 -0.316816 3.93538 -6.54065 0 -41 -2 -2.90125 7.95739 0.815113 0 -7.5 12.5 -4.4492e-10 -6.30329e-05 -2.79024e-09 -1.13687e-13 7.10543e-15 4 0.876862 -5.00939 1.31094 -8 0 0 -0.0569931 2.74442 -18.9897 0 -45 -1 -0.00847428 3.94374 0.191402 0 -41 -2 3.57837 -5.60617 1.42037 -1.13687e-13 -7.5 12.5 -1.15504e-07 1.21033e-06 -2.54647e-06 0 0 4 -0.309767 2.03182 19.7926 
